HIERARCHY
ROOT Hips
{
  OFFSET 0.0 0.0 0.0
  CHANNELS 6 Xposition Yposition Zposition Zrotation Xrotation Yrotation
  JOINT LeftHipJoint
  {
    OFFSET 0.1 0.0 0.0
    CHANNELS 3 Zrotation Xrotation Yrotation
    JOINT LeftUpLeg
    {
      OFFSET 117.05941048100834 0.0 0.0
      CHANNELS 3 Zrotation Xrotation Yrotation
      JOINT LeftLeg
      {
        OFFSET 0.0 0.0 -421.52566652508733
        CHANNELS 3 Zrotation Xrotation Yrotation
        JOINT LeftFoot
        {
          OFFSET 0.0 0.0 -423.82983868275653
          CHANNELS 3 Zrotation Xrotation Yrotation
          End Site
          {
            OFFSET 0.0 -0.1 0.0
          }
        }
      }
    }
  }
  JOINT LowerBack
  {
    OFFSET 0.0 0.0 0.1
    CHANNELS 3 Zrotation Xrotation Yrotation
    JOINT Spine
    {
      OFFSET 0.0 0.0 222.29863299394984
      CHANNELS 3 Zrotation Xrotation Yrotation
      JOINT Spine1
      {
        OFFSET 0.0 0.0 252.16708715328528
        CHANNELS 3 Zrotation Xrotation Yrotation
        JOINT LeftShoulder
        {
          OFFSET 0.1 0.0 0.0
          CHANNELS 3 Zrotation Xrotation Yrotation
          JOINT LeftArm
          {
            OFFSET 143.16094457568556 0.0 0.0
            CHANNELS 3 Zrotation Xrotation Yrotation
            JOINT LeftForeArm
            {
              OFFSET 263.51762200910946 0.0 0.0
              CHANNELS 3 Zrotation Xrotation Yrotation
              JOINT LeftHand
              {
                OFFSET 238.81480451405196 0.0 0.0
                CHANNELS 3 Zrotation Xrotation Yrotation
                End Site
                {
                  OFFSET 0.1 0.0 0.0
                }
              }
            }
          }
        }
        JOINT Neck
        {
          OFFSET 0.0 0.0 0.1
          CHANNELS 3 Zrotation Xrotation Yrotation
          JOINT Neck1
          {
            OFFSET 0.0 0.0 106.35494526349558
            CHANNELS 3 Zrotation Xrotation Yrotation
            End Site
            {
              OFFSET 0.0 0.0 112.916620037171
            }
          }
        }
        JOINT RightShoulder
        {
          OFFSET -0.1 0.0 0.0
          CHANNELS 3 Zrotation Xrotation Yrotation
          JOINT RightArm
          {
            OFFSET -143.16094457568556 0.0 0.0
            CHANNELS 3 Zrotation Xrotation Yrotation
            JOINT RightForeArm
            {
              OFFSET -263.51762200910946 0.0 0.0
              CHANNELS 3 Zrotation Xrotation Yrotation
              JOINT RightHand
              {
                OFFSET -238.81480451405196 0.0 0.0
                CHANNELS 3 Zrotation Xrotation Yrotation
                End Site
                {
                  OFFSET -0.1 0.0 0.0
                }
              }
            }
          }
        }
      }
    }
  }
  JOINT RightHipJoint
  {
    OFFSET -0.1 0.0 0.0
    CHANNELS 3 Zrotation Xrotation Yrotation
    JOINT RightUpLeg
    {
      OFFSET -117.05941048100834 0.0 0.0
      CHANNELS 3 Zrotation Xrotation Yrotation
      JOINT RightLeg
      {
        OFFSET 0.0 0.0 -421.52566652508733
        CHANNELS 3 Zrotation Xrotation Yrotation
        JOINT RightFoot
        {
          OFFSET 0.0 0.0 -423.82983868275653
          CHANNELS 3 Zrotation Xrotation Yrotation
          End Site
          {
            OFFSET 0.0 -0.1 0.0
          }
        }
      }
    }
  }
}
MOTION
Frames: 4
Frame Time: 0.03333333333333333
2500.0 5250.0 860.1061683281317 34.54055880502736 -8.53090710939833 0.8890613386768333 0.0 0.0 3.975693351829396e-16 -0.28008722753974935 4.128853062289392 -1.6066825693904856 -0.8319663941215496 8.5212483688944 -0.30349091482421986 0.0 0.0 0.0 0.0 0.0 3.975693351829396e-16 -0.33668218690173574 4.90434516937396 -2.0134866301829284 -2.2292825193355617 -2.865197441058019e-16 -6.020415741615119e-16 0.0 0.0 -9.93923337957349e-17 -29.412292266568343 8.88218662455223 78.24584699938653 -52.688894506698944 -4.112608516499446e-15 -6.029356101246333e-15 0.0 0.0 1.5902773407317584e-15 0.0 0.0 -9.93923337957349e-17 6.07750812858924 7.648619373832678 -0.5279855472544895 0.0 0.0 -9.93923337957349e-17 30.106558329299723 20.49124316949493 -73.81018883731774 73.24506335519736 -8.899977499820124e-15 -1.3106582914442205e-15 0.0 0.0 0.0 0.0 0.0 3.975693351829396e-16 -0.6106154784514377 8.801286670280055 2.4503733354201342 -0.2926050908318596 10.941590505617661 1.2226443838526018 0.0 0.0 -7.951386703658791e-16
2500.0 5250.0 860.1061683281317 34.5876110053205 -8.612098294185824 0.8614693724353453 0.0 0.0 0.0 -0.3179614957543742 4.566681174760843 -1.5474001304316523 -0.8252876465788307 8.397303710204495 -0.3176948385078577 0.0 0.0 0.0 0.0 0.0 0.0 -0.3553225406348787 5.053119336846178 -1.9837428933205188 -2.6993646588219495 -5.961885508132678e-16 -1.4046654556724115e-17 0.0 0.0 9.939233379573489e-17 -30.78161247372542 7.511357462212947 77.53351054400801 -51.21802647154941 1.4618749864432896e-14 -8.423816894820855e-15 0.0 0.0 0.0 0.0 0.0 9.939233379573489e-17 5.861133816320428 7.234601004822365 -0.6142529517381944 0.0 0.0 9.939233379573489e-17 31.13787285110474 19.882234012174006 -73.68222094402537 71.47365249561224 -2.147259724602445e-14 -8.05951783685331e-15 2.2069531490250793e-31 -6.3611093629270335e-15 3.975693351829396e-15 0.0 0.0 0.0 -0.6237526496725103 8.782068210893797 2.602668682120455 -0.28104014993084075 10.922176348228675 1.0488568608682483 0.0 0.0 0.0
2500.0 5250.0 860.1061683281317 34.79489535619214 -8.427397862042906 1.0034300376146414 0.0 0.0 -3.975693351829396e-16 -0.2989066820749925 4.375610298297516 -1.6616961898088367 -0.8355600138593766 8.438191860661979 -0.2736032282879574 0.0 0.0 0.0 0.0 0.0 -3.975693351829396e-16 -0.3344067452455261 4.843417300556099 -2.2066579296054454 -2.391585261339577 -9.314803111648208e-17 -3.00186282952354e-16 0.0 0.0 4.969616689786745e-16 -30.615456845511094 7.796820859596956 77.75083653539573 -50.9103603396468 4.271931353567923e-15 -8.974350265285571e-15 0.0 0.0 -1.5902773407317584e-15 0.0 0.0 4.969616689786745e-16 5.219583519845572 7.262938613397376 -0.4548409060167174 0.0 0.0 4.969616689786745e-16 31.47463366625876 19.84809966961881 -73.62287511819116 70.73681493046614 -8.869159367836078e-15 -1.5051367918436707e-15 0.0 0.0 1.5902773407317584e-15 0.0 0.0 -3.975693351829396e-16 -0.5964974650135295 8.55211700076083 2.5546698834312225 -0.2785564548281972 11.026537136731598 0.9683331497860844 0.0 0.0 7.951386703658792e-16
2500.0 5250.0 860.1061683281317 35.187089688503285 -8.44727262531647 1.0618418224950394 0.0 0.0 0.0 -0.29710507263441366 4.31792870624661 -1.6724131086370129 -0.8553967130399561 8.575430740964087 -0.22011710269969612 0.0 0.0 0.0 0.0 0.0 0.0 -0.3343951517219698 4.807649053188188 -2.235728545520825 -2.118754828281225 1.1814784051094928e-15 6.183035349933163e-16 0.0 0.0 -1.987846675914698e-16 -30.334221081836066 8.85422282954425 78.35565820288555 -49.842040108846724 9.50157859529607e-15 -1.2901596591764744e-14 0.0 0.0 -3.1805546814635168e-15 0.0 0.0 -1.987846675914698e-16 4.777873534262702 7.417912120091618 -0.47286451713436467 0.0 0.0 -1.987846675914698e-16 31.416034282961334 20.103660169267847 -73.9288431319778 70.38105674459514 -1.4062997968751391e-14 2.1332252029460088e-15 0.0 0.0 7.951386703658792e-16 0.0 0.0 0.0 -0.6012184582130203 8.55606556873504 2.6900380726362303 -0.26160687469780486 11.179319492030833 0.8885487293699537 5.517382872562698e-33 1.5902773407317584e-15 -3.975693351829396e-16
